<?xml version="1.0" encoding="utf-8"?>
<!-- Generator: Adobe Illustrator 25.2.3, SVG Export Plug-In . SVG Version: 6.00 Build 0)  -->
<svg version="1.1" xmlns="http://www.w3.org/2000/svg" xmlns:xlink="http://www.w3.org/1999/xlink" x="0px" y="0px"
	 viewBox="0 0 600 600" style="enable-background:new 0 0 600 600;" xml:space="preserve">
<style type="text/css">
	.st0{fill:#ECBDBB;}
	.st1{fill:#404B7C;}
	.st2{fill:#F68D88;}
	.st3{fill:none;stroke:#9AB3DA;stroke-width:1.096442;stroke-linecap:round;stroke-linejoin:round;stroke-miterlimit:10;}
	.st4{fill:none;stroke:#ECBDBB;stroke-width:1.096442;stroke-linecap:round;stroke-linejoin:round;stroke-miterlimit:10;}
	.st5{fill:#9AB3DA;}
	.st6{fill:none;stroke:#404B7C;stroke-width:1.096442;stroke-linecap:round;stroke-linejoin:round;stroke-miterlimit:10;}
	.st7{fill:none;stroke:#F68D88;stroke-width:1.0401611;stroke-linecap:round;stroke-linejoin:round;stroke-miterlimit:10;}
	.st8{fill:none;stroke:#9AB3DA;stroke-width:1.0361407;stroke-linecap:round;stroke-linejoin:round;stroke-miterlimit:10;}
	.st9{fill:none;stroke:#404B7C;stroke-width:1.0401611;stroke-linecap:round;stroke-linejoin:round;stroke-miterlimit:10;}
	.st10{fill:none;stroke:#ECBDBB;stroke-width:0.8894239;stroke-linecap:round;stroke-linejoin:round;stroke-miterlimit:10;}
	.st11{fill:none;stroke:#ECBDBB;stroke-width:1.0433227;stroke-linecap:round;stroke-linejoin:round;stroke-miterlimit:10;}
	.st12{fill:none;stroke:#D4E6FC;stroke-width:1.0433227;stroke-linecap:round;stroke-linejoin:round;stroke-miterlimit:10;}
	.st13{fill:#F7F8FA;}
	.st14{fill:#FFABAB;}
	.st15{fill:#B0C8EA;}
	.st16{fill:none;stroke:#6B81BE;stroke-width:1.0433227;stroke-linecap:round;stroke-linejoin:round;stroke-miterlimit:10;}
	.st17{fill:#E9F3FF;}
</style>
<g id="MAN_LEFT_LEG">
	<g>
		<polygon class="st0" points="277.1596375,455.1552429 274.842804,468.6997986 265.9319153,468.6997986 266.1101379,454.4423523 		
			"/>
		<g>
			<path class="st1" d="M261.2937927,465.8482971h17.6435547c0,0,3.8200073,21.2079163,2.3167725,38.1386108h-33.1485138
				c0,0,0.4177399-9.7045288,5.65802-13.5445557C260.8165588,485.2740479,261.2937927,465.8482971,261.2937927,465.8482971z"/>
			<path class="st2" d="M255.8306274,487.234436c0,0-1.1903534,4.0396118-1.696701,9.7425842h28.6336823l0.2092896,7.0098877
				h-36.5940704C246.3828278,503.986908,245.9114838,490.5611572,255.8306274,487.234436z"/>
			<path class="st3" d="M269.7877197,467.868103c0,0,1.4035034,14.9703064,1.1142273,26.2574158"/>
			<path class="st3" d="M275.0748596,467.868103c0,0,1.4035034,14.9703064,1.1142273,26.2574158"/>
		</g>
		<g>
			<path class="st2" d="M309.9660645,285.135437l-24.1188354,95.1683044l-5.6578979,78.0594177h-16.7524719l-7.4114075-84.5940552
				l8.3168335-93.267334c0,0,3.5643616-20.6732788,27.0891113-20.6732788S309.9660645,285.135437,309.9660645,285.135437z"/>
			<polygon class="st4" points="277.5621948,286.177063 275.7800293,302.3890991 286.8295288,306.4268799 295.6216125,303.5512695 
				298.8295288,287.0364075 			"/>
			<path class="st4" d="M284.0766602,375.8117371c0,0-8.6449585-3.5678101-19.3985596-0.9975281"/>
			<polyline class="st4" points="269.0947571,278.4819641 259.8800964,375.8117371 266.1101379,454.4423523 			"/>
		</g>
	</g>
</g>
<g id="MAN_RIGHT_LEG">
	<g>
		<polygon class="st0" points="335.6888123,455.1552429 338.0056458,468.6997986 346.9165344,468.6997986 346.7383423,454.4423523 
					"/>
		<g>
			<path class="st1" d="M333.7284241,465.8482971h17.6435547c0,0,5.7029724,21.2079163,5.7029724,38.1386108h-33.1484985
				c0,0-0.4438782-9.7045288,4.4554443-13.5445557C334.9759521,485.2740479,333.7284241,465.8482971,333.7284241,465.8482971z"/>
			<path class="st2" d="M330.1640625,487.234436c0,0-0.831665,4.0396118-0.831665,9.7425842h28.633667l0.831665,7.0098877
				h-36.5940552C322.2036743,503.986908,320.5403137,490.5611572,330.1640625,487.234436z"/>
			<path class="st3" d="M342.4017029,467.868103c0,0,2.732666,14.9703064,3.4455261,26.2574158"/>
			<path class="st3" d="M347.6888123,467.868103c0,0,2.7326965,14.9703064,3.4455566,26.2574158"/>
		</g>
		<g>
			<path class="st2" d="M300.2234802,285.135437l18.1782227,95.1683044l14.2574158,78.0594177h16.7524719l-1.1881104-84.5940552
				l-2.3762512-93.267334c0,0-3.5643311-20.6732788-27.0891113-20.6732788
				C295.2333679,259.8284912,300.2234802,285.135437,300.2234802,285.135437z"/>
			<polygon class="st4" points="339.6391602,286.177063 341.4213257,302.3890991 330.3718262,306.4268799 321.5797424,303.5512695 
				318.3718262,287.0364075 			"/>
			<path class="st4" d="M325.9735107,375.8117371c0,0,8.644928-3.5678101,19.3985596-0.9975281"/>
			<polyline class="st4" points="309.6484375,306.4268799 322.7977295,377.8086853 336.1817932,453.3962097 			"/>
		</g>
	</g>
</g>
<g id="MAN_BODY">
	<g>
		<polygon class="st0" points="299.2432861,154.6799774 298.6195068,141.0463257 307.6195068,140.6898804 309.3125916,154.6799774 
					"/>
		<g>
			<path class="st1" d="M286.4676208,159.4324646c0,0,6.534668-6.891098,18.2970276-6.891098
				c11.7623901,0,18.415863,5.8217773,18.415863,5.8217773L286.4676208,159.4324646z"/>
			<path class="st5" d="M349.7683716,292.4990845c0,0-20.0300293,7.3499756-39.8300171,9.4299927l-6.5100098-28.2000122
				l-6.3099976,28.6600342c-20.7700195-1.2200317-36.039978-14.210022-37.1699829-15.1199951
				c-1.1900024-0.9500122,14.0199585-49.9000397,14.0199585-49.9000397l-7.4874268-75.3227386
				c0,0,18.2062988-5.2272491,37.5474243-5.2272491c25.6600342,0,44.2000122,5.460022,44.2000122,5.460022l-7.0100098,74.6199951
				L349.7683716,292.4990845z"/>
			<polyline class="st6" points="303.4313965,165.1354218 306.1640625,235.9473114 303.4313965,266.4934692 			"/>
		</g>
	</g>
</g>
<g id="MAN_HEAD">
	<g>
		<path class="st0" d="M314.8373413,124.5611725c0,0,0.0891113,14.8811798-4.0098877,17.0198059
			c-4.0990295,2.1386108-11.4356689-0.891098-11.4356689-0.891098L314.8373413,124.5611725z"/>
		<g>
			<path class="st0" d="M292.5305786,131.6201477c0,0-2.1746216-3.0241547-5.7640076-1.1592712
				c-3.5894165,1.8648682,0.8440552,9.7624664,8.1543884,6.1145935L292.5305786,131.6201477z"/>
		</g>
		<g>
			<path class="st0" d="M310.8426208,131.6201477c0,0,2.1745911-3.0241547,5.7640076-1.1592712
				c3.589386,1.8648682-0.8440552,9.7624664-8.1543884,6.1145935L310.8426208,131.6201477z"/>
		</g>
		<path class="st1" d="M317.4806824,125.6997833c-0.7299805,0.039978-1.4499512-0.0100098-2.1699829-0.1300049
			l-7.5476379,16.3061829l-9.1435547,0.3669586c0,0-13.9687805-13.6731415-13.4988098-19.0531464
			c0.2800293-3.2200317,2.8599854-5.7399902,6.6699829-8.6900024c-4.3699951-1.6400146-9.0299683-5.8699951-6.2799683-7.4199829
			c3.2700195-1.8500366,8.5800171,5.5899658,8.5800171,5.5899658c-0.2700195-13.75,7.4699707-15.1400146,5.9199829-10.0599976
			c-0.9400024,3.0800171-2.1000366,6.0200195-2.8599854,7.8599854c1.1799927-0.8999634,2.4199829-1.8699951,3.6900024-2.8999634
			c8.289978-6.7900391,22.5799561-17.9199829,27.5199585-11.3599854c4.8200073,6.4099731-3.0899658,16.9899902-3.4899902,17.539978
			c0.2999878-0.2299805,4.1099854-3,5.3800049-0.3599854C331.580719,116.1497955,325.4906921,125.3197784,317.4806824,125.6997833z"
			/>
	</g>
</g>
<g id="WOMAN_1_HEAD">
	<g>
		<g>
			<g>
				<path class="st0" d="M210.59375,140.6670074l-0.6182251-5.4228363c0,0-1.4816132-4.1919708-5.1433105-3.9712067
					C201.1705017,131.4937286,199.9213104,140.7494812,210.59375,140.6670074z"/>
			</g>
			<path class="st7" d="M208.0709686,139.0071411c1.2488861,0.6735077,1.3373413,2.9328156,0.1975708,5.0463104
				c-1.1397705,2.1135101-3.0761566,3.2808533-4.3250427,2.6073608c-1.2488861-0.6735077-1.3373413-2.9328156-0.1975708-5.0463104
				c0.4397888-0.8155212,0.9981995-1.4901733,1.5899506-1.9725494"/>
		</g>
		<g>
			<path class="st0" d="M216.7833557,141.4027557c0,0,4.5445557,3.6534576,8.9109039,2.8514862
				c4.366333-0.8019867,7.0395966-12.5643616,5.6138611-20.2277222
				C229.88237,116.3631516,215.1793976,123.3136444,216.7833557,141.4027557z"/>
			<g>
				<path class="st0" d="M225.7866516,140.6670074l0.6182251-5.4228363c0,0,1.4816132-4.1919708,5.1433105-3.9712067
					C235.2098999,131.4937286,236.4590912,140.7494812,225.7866516,140.6670074z"/>
			</g>
			<path class="st7" d="M228.3094482,139.0071411c-1.2488861,0.6735077-1.3373566,2.9328156-0.1975861,5.0463104
				c1.1397705,2.1135101,3.0761566,3.2808533,4.3250427,2.6073608c1.2488861-0.6735077,1.3373413-2.9328156,0.1975708-5.0463104
				c-0.4397888-0.8155212-0.9981995-1.4901733-1.5899506-1.9725494"/>
		</g>
		<g>
			<path class="st0" d="M213.2125549,142.2429199c0,0.3182526,0,15.2885437,0,15.2885437l9.9552917,1.1479034l-0.5380859-16.4364471
				H213.2125549z"/>
			<path class="st1" d="M203.9611664,121.5314713c0.5118103,11.515831,8.7673187,22.3366318,8.7673187,22.3366318h11.1683197
				l5.5841522-12.1188202c0,0,7.2475281,0.1188202,7.6039581-4.8712769
				c0.3564453-4.9901047-3.3267365-4.9901047-3.3267365-4.9901047s5.8217926-10.5742569-3.5643463-14.6138611
				s-17.4653473,5.3465347-17.4653473,5.3465347S203.4859161,110.8384018,203.9611664,121.5314713z"/>
			<g>
				<path class="st1" d="M219.2631378,113.8304443c0,0-5.2853851-9.2963791-13.205658-10.9804993
					c-7.9202881-1.6841278-12.8379822,6.6072006-13.5138092,16.4568405s6.9332275,17.9074631,17.4637909,8.1807709
					C218.2803955,119.8461456,219.2631378,113.8304443,219.2631378,113.8304443z"/>
				<path class="st8" d="M208.3804626,128.1196136c0.004425-0.0026093,9.042984-5.3473053,10.5061646-14.0458374"/>
			</g>
		</g>
	</g>
</g>
<g id="WOMAN_1_LEFT_ARM">
	<g>
		<path class="st2" d="M205.7928009,192.6997833l-38.8778839,39.6815338l-19.1534424-16.9242706l36.8813171-49.0129852
			c0.8480988-1.1270905,1.983902-2.0051575,3.2882385-2.5420837l0,0c2.4781036-1.0201111,5.2917938-0.696701,7.4969177,0.8261261
			C201.9658051,169.2430878,211.2957306,176.3830719,205.7928009,192.6997833z"/>
		<path class="st1" d="M173.7716522,229.761261l-6.2372742,8.304184c0,0-11.2668457,4.1103058-20.0727997-3.1134033
			c-8.805954-7.2236938-6.2770996-16.1269226-6.2770996-16.1269226l7.8654327-11.8295746
			C149.0499115,206.9955444,170.775589,209.7313538,173.7716522,229.761261z"/>
		<g>
			<path class="st0" d="M143.745163,281.9022217c3.958313-15.0249939,12.9413452-33.5026703,18.6611938-45.6213074
				c0.2924652-8.7650604-11.8503723-16.2627258-18.3543396-12.3171387c0,0-10.1098785,16.8574829-7.3188171,56.5125427
				c0,0-3.7717133,3.2332764-4.3811951,5.0863647c-0.5827942,1.7719727,1.4826202,6.6098328-3.859787,15.7644653
				c-0.4386139,0.7515869-0.2653961,1.71521,0.4118347,2.2616882l0,0c0.7447052,0.6009216,1.8333282,0.5037537,2.4510651-0.2270508
				c1.2917175-1.5282288,3.3535004-4.1784973,4.3812714-6.6268921c0,0-0.4313507,4.9284668-2.9559784,9.7641296
				c-0.5326538,1.0202332-0.190918,2.2754211,0.8151703,2.8343811l0.0210724,0.0117188
				c0.9444275,0.5246887,2.1347809,0.2494507,2.7392426-0.6460266c1.2619324-1.8694763,3.1977692-5.1507874,3.641922-8.2475586
				c0,0,0.0484314,4.1237488-1.4957123,8.0028381c-0.4238739,1.0648499,0.1973877,2.2570801,1.3110504,2.5278931h0.0000153
				c0.8660736,0.2106018,1.7559814-0.2073975,2.1491394-1.0073242c1.1952515-2.4318848,3.4559937-7.6654358,3.1031647-11.8395386
				c0,0,0.6178894,3.7989807,0.4215088,7.6815796c-0.0552521,1.0924683,0.9398346,1.9417419,2.0136719,1.7333374l0,0
				c0.6821289-0.1323853,1.2131653-0.6598816,1.342041-1.3426819c0.4617157-2.4463806,1.2930145-8.5138855-0.2995148-14.6669617
				c0,0,0.9977264,1.067749,2.2172241,2.6260376c0.6195526,0.7917175,1.7602234,0.9489441,2.572525,0.3566589l0,0
				c0.7807159-0.5692749,1.0045166-1.6369629,0.5076141-2.4656067
				C152.1455994,289.2312622,148.1136322,283.228241,143.745163,281.9022217z"/>
			<path class="st9" d="M147.6084595,291.0554504c0,0-5.1186066,0.5044861-8.3187408-4.0505371"/>
			<path class="st9" d="M133.9407806,295.0709839c0,0,5.8877869,2.4379883,12.3751221,1.7955627"/>
		</g>
	</g>
</g>
<g id="WOMAN_1_LEFT_LEG">
	<g>
		<polygon class="st0" points="132.9017029,458.3631592 130.0502167,476.1849365 135.7531891,476.1849365 141.2779388,460.1453247 
					"/>
		<g>
			<path class="st1" d="M162.3076477,309.7294922c0,0-17.3465424,74.0198059-17.8217773,77.1089172
				c-0.4752502,3.0891113-16.0396118,73.9603882-16.0396118,73.9603882l14.9702911,1.6633606
				c0,0,27.4455566-69.6831665,30.534668-76.8118896c3.0890961-7.1286926,35.6435547-74.1386108,35.6435547-74.1386108
				s14.0198059-25.6633606-16.8712921-27.3267212S162.3076477,309.7294922,162.3076477,309.7294922z"/>
			<polyline class="st8" points="165.515564,312.5809631 147.6937866,386.3631592 133.4363556,457.2938538 			"/>
			<path class="st8" d="M153.0403137,382.3235474c0,0,9.5049591-0.9505005,16.1584167,2.3762512"/>
		</g>
		<g>
			<path class="st2" d="M143.1099854,490.0899658c0,0-3.1699829,1.0500488-7.5,4.4000244
				c-3.5299683,2.7299805-7.0999756,7.4199829-11.0499878,9.5H102.5c0.8599854-5.7000122,7.7299805-6.9199829,11.4199829-10.0700073
				c3.8300171-3.2700195,14.1400146-20.8900146,14.1400146-20.8900146
				c6.6500244,2.0700073,10.5499878,0.2300415,10.5499878,0.2300415
				C142.2000122,480.6400146,143.1099854,490.0899658,143.1099854,490.0899658z"/>
			<path class="st1" d="M141.8200073,503.9899902h-4.1799927c-0.4800415-2.9299927-1.5900269-9.0499878-2.8800049-12.25
				c-1.7399902-4.2999878,7.5-8.4299927,8.3499756-1.6500244
				C143.4199829,493.9699707,142.9199829,498.6699829,141.8200073,503.9899902z"/>
		</g>
	</g>
</g>
<g id="WOMAN_1_RIGHT_LEG">
	<g>
		<polygon class="st0" points="236.827652,459.2346802 234.1301422,477.0804443 228.6967163,475.3478699 228.3058929,458.3879395 		
			"/>
		<g>
			<path class="st2" d="M226.6107635,471.0760193c0,0,4.990097-2.1386108,8.6732635,0l2.6138611,1.901001
				c0,0,4.5148468,16.0395813,8.7920837,20.3168335c4.2772217,4.2772217,3.5643616,10.3366394,3.5643616,10.3366394h-14.4356537
				l-7.1287079-15.5049744l-4.0990143-2.1386108C224.5909576,485.986908,224.8879852,477.0166016,226.6107635,471.0760193z"/>
			<path class="st1" d="M224.8373566,482.0716553c0,0-0.9052582,10.4628601,0.66362,21.5588379h4.4608459
				c0,0,0.03508-11.4950562,1.7281494-16.3960571S228.4698792,480.2949829,224.8373566,482.0716553z"/>
		</g>
		<g>
			<path class="st1" d="M251.9553833,309.7461548c0,0-3.127533,75.9608459-3.4976501,79.0643311
				c-0.3701019,3.1034546-9.5140533,75.5533142-9.5140533,75.5533142l-14.8873749,0.4151917
				c0,0-2.6019745-77.3148499-3.6673584-85.0107117c-1.0653992-7.6958313-14.4681854-80.9794312-14.4681854-80.9794312
				s-6.6283264-28.4820862,23.5783081-21.8049011S251.9553833,309.7461548,251.9553833,309.7461548z"/>
			<polyline class="st8" points="248.1005554,311.6334839 244.4653473,386.8613892 235.0755768,459.6495972 			"/>
			<path class="st8" d="M241.4263916,382.1679688c0,0-8.90242-3.4632874-16.2041016-2.0415955"/>
		</g>
	</g>
</g>
<g id="WOMAN_1_BODY">
	<g>
		<path class="st2" d="M203.1789398,161.0958252c0,0,5.3465271-6.4158478,13.5445404-6.4158478
			c8.1980286,0,14.9703064,6.5346527,14.9703064,6.5346527L203.1789398,161.0958252z"/>
		<path class="st2" d="M190.4660645,163.234436c-4.0209045,1.8084412-7.4851532,21.0297089-6.4158478,32.4356537
			c1.0693054,11.4059296,3.4455414,34.7524719-2.4950409,46.1584015
			c-5.9405975,11.4059448-23.0495148,46.633667-27.0891113,66.3564453c0,0,12.1188049,18.0594177,53.4653473,19.0098877
			c41.3465271,0.9505005,54.6534576-17.3465271,54.6534576-17.3465271s-14.0197906-69.9801941-15.0891113-77.4653473
			c-1.0693054-7.4851379,6.4158478-32.7920685,6.7722778-40.990097c0.3564453-8.1980133-8.1980133-28.1584167-8.1980133-28.1584167
			S215.2977448,152.0661163,190.4660645,163.234436z"/>
		<path class="st10" d="M227.8981018,159.0879822c-6.0500946-0.8020325-13.1003876-1.1737823-20.3294678-0.3656006"/>
		<path class="st10" d="M209.7135925,168.9374084c0,0-3.9207916,15.6831665-3.9207916,41.7029724
			s-6.7722778,44.9108887-12.1188202,80.5544434"/>
		<path class="st10" d="M187.8639984,166.8541718c-2.7563477,6.5006714-4.6407166,19.9952698-3.8137817,28.815918
			c0.3390198,3.6161499,0.8094025,8.4325104,1.1044617,13.6880646"/>
	</g>
</g>
<g id="WOMAN_2_RIGHT_ARM">
	<g>
		<path class="st2" d="M402.6688232,200.3202515l35.7492981,43.0788422l17.6529846-9.6570129
			c-9.3582153-19.6774292-20.2347107-38.0064697-32.0683289-55.4855042c-0.676178-1.0915527-1.633667-1.9810181-2.7720032-2.5750732
			l-0.0000305-0.0000153c-2.1627197-1.1286316-4.7401733-1.066864-6.8645935,0.1323547
			C408.067627,179.3693542,399.0219421,185.0750275,402.6688232,200.3202515z"/>
		<g>
			<path class="st2" d="M458.5729065,285.5779419c5.7919312-35.7214508-2.50177-51.8358917-2.50177-51.8358917
				c-5.5719604-4.1119995-17.1972046,1.6866455-17.6530151,9.6570435
				c4.1888428,11.4570923,9.7228088,28.8308868,12.075592,42.7779694
				C450.4937134,286.177063,455.2066956,287.2084961,458.5729065,285.5779419z"/>
			<path class="st0" d="M463.8144226,305.1589355c-4.0903931-8.7389526-1.8200073-12.9550171-2.2026367-14.609436
				c-0.4001465-1.7301025-3.5535889-4.9715576-3.5535889-4.9715576c-2.5896912-0.9221802-6.0605469-0.6442871-6.4743042,0.7159424
				c-4.069458,0.8428345-8.2185669,5.9535522-9.9876709,8.3766479c-0.5186157,0.7103271-0.4035645,1.6967163,0.2573853,2.2769775
				h0.000061c0.6876831,0.6038208,1.7347412,0.5550537,2.3615112-0.1116943
				c1.2337646-1.312439,2.2261353-2.1984253,2.2261353-2.1984253c-1.9498901,5.4473877-1.6952515,11.0164795-1.4779053,13.2723389
				c0.0606689,0.6296387,0.4987183,1.1515503,1.1062622,1.3276367c0.9564209,0.2772827,1.9284058-0.4108276,1.9681396-1.4058228
				c0.1412964-3.5360718,1.0139771-6.9293823,1.0139771-6.9293823c-0.663208,3.755249,0.9559326,8.6858521,1.8394775,10.9888916
				c0.2906494,0.7575073,1.0630493,1.2097168,1.8655396,1.0900269c1.0319214-0.1539307,1.6932373-1.1837158,1.3965454-2.18396
				c-1.0808716-3.6437378-0.6978149-7.3783569-0.6978149-7.3783569c0.1480103,2.8440552,1.6331177,5.9780884,2.6234131,7.7767334
				c0.4743652,0.8615723,1.5308838,1.2089844,2.4302368,0.8109741l0.0200806-0.0088501
				c0.9580688-0.4240112,1.3711548-1.5338745,0.972168-2.5026245c-1.8911133-4.5916138-1.8768311-9.0952148-1.8768311-9.0952148
				c0.7304077,2.3042603,2.3816528,4.8765259,3.427002,6.3682251c0.499939,0.7133789,1.4788818,0.8910522,2.2034302,0.4074707
				C463.9139709,306.7357178,464.1502991,305.8764038,463.8144226,305.1589355z"/>
			<path class="st9" d="M447.3286133,294.2743835c0,0,4.598999,0.8783875,7.8748779-2.9879761"/>
			<path class="st9" d="M459.3893738,299.0390015c0,0-5.5383606,1.7259827-11.3668823,0.6099854"/>
		</g>
	</g>
</g>
<g id="WOMAN_2_RIGHT_LEG">
	<g>
		<g>
			<polygon class="st0" points="441.1324768,455.8648376 442.0945435,467.7525635 451.4619446,467.7525635 451.4619446,455.8648376 
							"/>
			<path class="st2" d="M440.5700073,465.8482971h14.5751038c0,0,5.7029724,21.2079163,5.7029724,38.1386108H427.699585
				c0,0-0.4438782-9.7045288,4.4554443-13.5445557C438.7490845,485.2740479,440.5700073,465.8482971,440.5700073,465.8482971z"/>
			<path class="st5" d="M434.253479,487.9423828c0,0-1.1479492,3.331665-1.1479492,9.0346375h28.6336365l0.8316956,7.0098877
				h-36.5940552C425.9768066,503.986908,424.6297302,491.269104,434.253479,487.9423828z"/>
			<path class="st11" d="M446.1748352,467.868103c0,0,2.732666,14.9703064,3.4455261,26.2574158"/>
			<path class="st11" d="M451.4619446,467.868103c0,0,2.7326965,14.9703064,3.4455566,26.2574158"/>
		</g>
		<path class="st5" d="M445.6467285,377.0419922c0,0-5.682251-97.6746826-15.6715698-108.6915894
			c-9.9893188-11.0169678-43.0308838-8.7872925-41.7180176,15.7612305
			c0.0808716,1.5120239,44.5604248,144.0964355,51.6891479,174.2515259H452.53125c0,0,1.7227783-37.5361938-1.7227783-59.8812256
			C449.8694458,392.3922119,445.6467285,377.0419922,445.6467285,377.0419922z"/>
		<polygon class="st12" points="410.1054688,286.177063 412.5024109,302.2218018 424.4337158,304.3510132 432.3672485,300.1283264 
			431.2987061,283.5577393 		"/>
		<path class="st12" d="M405.8713074,310.1068115c0,0,29.1944885,108.2020569,36.1495667,139.6351318"/>
	</g>
</g>
<g id="WOMAN_2_LEFT_LEG">
	<g>
		<g>
			<polygon class="st0" points="377.6888123,455.7492981 378.6695557,467.868103 388.2190857,467.868103 388.2190857,455.7492981 
							"/>
			<path class="st5" d="M358.7977295,275.5427246c0,0-1.4257507,31.8455505-1.7227783,39.610199
				c-0.2970276,7.764679,18.2376404,143.2102356,18.2376404,143.2102356l14.6673279,0.3207703
				c0,0,2.9049683-101.4769287,7.6633606-131.4533081c4.7584229-29.9763794,10.0990295-41.6831665,6.3029785-51.7668152
				C400.1502075,265.380127,367.8271179,258.5863953,358.7977295,275.5427246z"/>
			<polygon class="st12" points="376.6195068,286.177063 374.8373413,302.3890991 385.8868408,306.4268799 394.6789246,303.5512695 
				397.8868408,287.0364075 			"/>
			<path class="st12" d="M362.7615662,293.4337769c-1.263916,21.000946-1.263916,21.000946,0,33.7968445
				c1.2638855,12.7958984,15.9079895,124.36026,15.9079895,124.36026"/>
			<path class="st12" d="M400.1588135,312.999939c3.8408203-19.8194275,6.914856-29.2286072,3.7874451-37.5361328"/>
		</g>
		<g>
			<path class="st2" d="M376.1442566,465.8482971h14.0732727c0,0,5.7029724,21.2079163,5.7029724,38.1386108h-33.1484985
				c0,0-0.4438782-9.7045288,4.4554443-13.5445557C373.8215027,485.2740479,376.1442566,465.8482971,376.1442566,465.8482971z"/>
			<path class="st5" d="M369.4748535,487.9423828c0,0-1.2969055,3.331665-1.2969055,9.0346375h28.633667l0.831665,7.0098877
				h-36.5940552C361.0492249,503.986908,359.8511047,491.269104,369.4748535,487.9423828z"/>
			<path class="st11" d="M381.2472534,467.868103c0,0,2.732666,14.9703064,3.4455261,26.2574158"/>
			<path class="st11" d="M386.5343628,467.868103c0,0,2.7326965,14.9703064,3.4455566,26.2574158"/>
		</g>
	</g>
</g>
<g id="WOMAN_2_BODY">
	<g>
		<path class="st5" d="M396.0885315,171.4129944c-12.1196594-1.1443787-14.2362976,9.6537018-13.6036377,16.0291748
			c0,0,3.9800415-2.7127228,11.3376465-3.8291473c0,0,4.1425781,1.5203857,8.6647949,6.8660736
			C402.4873352,190.4790955,413.3762817,173.0453491,396.0885315,171.4129944z"/>
		<path class="st2" d="M391.691925,174.470108c-13.2905273,0.0437469-20.7517395,0.2531738-20.7517395,0.2531738
			s-13.4039307,42.2353363-12.4125977,46.3862c0.9913635,4.1508789,8.309021,13.6615601,8.309021,13.6615601l-15.7027893,51.9698334
			c0,0,20.8338318,8.3068542,43.8235168,6.4118042c22.9896851-1.8950806,47.0635376-13.1131287,47.0635376-13.1131287
			s-19.9351807-41.28685-20.6009216-46.0494843c-0.6657715-4.7626343,9.044281-35.1161652,8.5552063-45.8839111
			c-2.5368652-9.8371582-14.7271423-12.6035614-24.1038513-15.0899506
			C402.4508972,172.1092224,395.2305298,174.4584656,391.691925,174.470108z"/>
		<path class="st4" d="M423.5500183,221.950531c2.2606812-9.5406647,5.5786133-22.2900696,6.3009033-30.227356"/>
		<path class="st4" d="M358.9724121,280.8734131c0,0,18.5098267,5.5148621,34.326355,5.2973633
			s42.2804565-10.7069702,42.2804565-10.7069702"/>
	</g>
</g>
<g id="WOMAN_2_HEAD">
	<g>
		<path class="st0" d="M372.4792786,135.9741211c0,0-1.9082947,8.3714142,0.9726562,17.404953
			c2.8809509,9.0335541,10.3204041,7.5339355,16.4490662,2.0115204c6.1286621-5.5224304,7.0053406-17.3501282,7.0053406-17.3501282
			s0.1795654-10.0109558-7.2266541-12.004921C382.2734985,124.0415878,374.5898132,127.9471817,372.4792786,135.9741211z"/>
		<path class="st1" d="M375.5264282,135.3646851c0,0,2.973999,19.6112213-8.82724,28.9174042
			c0,0,6.4499512,10.6112518,26.3210449,8.4415894c21.6190796-2.3605347,23.4012756-13.291214,23.4012756-13.291214
			s-11.2721558-5.7923584-13.1897888-21.9065094S375.230072,122.9915924,375.5264282,135.3646851z"/>
		<g>
			<path class="st1" d="M389.7659302,129.1561127c0,0-6.9330139,10.8583527-20.4946594,10.0020905
				c-7.6053772-8.5700531,3.6609192-26.6055222,19.7270813-16.2857666
				c19.1202393-0.2102966,17.5346375,19.8512573,6.98703,21.1247101
				C395.9853821,143.9971466,390.147644,140.5478363,389.7659302,129.1561127z"/>
			<path class="st1" d="M372.353302,138.5512695l2.8998718,5.4458771l2.6114197-4.590271
				c0,0-0.2054749-2.6377869-0.7401123-2.7268982C376.5898132,136.5908813,372.353302,138.5512695,372.353302,138.5512695z"/>
			<g>
				<g>
					<path class="st0" d="M375.1089478,149.7306519l0.7022095-6.7143097c0,0-0.6386719-3.6367035-4.8946228-2.679245
						C366.660614,141.2945404,368.7185364,150.6403809,375.1089478,149.7306519z"/>
				</g>
				<path class="st7" d="M374.5868225,147.9976196c1.5943604,0.5523529,2.1290894,3.1874237,1.1943054,5.8855591
					c-0.9347839,2.6981506-2.9850464,4.4376526-4.5794067,3.8852844s-2.1290588-3.1874237-1.1942749-5.8855743
					c0.3606873-1.0411072,0.8874817-1.9394989,1.4900513-2.6185455"/>
			</g>
		</g>
	</g>
</g>
<g id="WOMAN_2_LEFT_ARM">
	<g>
		<g>
			<path class="st0" d="M276.6039124,255.9676361c8.6515808-4.970871,13.1869507-2.9806061,14.865387-3.5167542
				c1.7550659-0.5624237,4.8176575-4.0889435,4.8176575-4.0889435l-1.2911682-6.6131592
				c-1.2124023-4.116272-6.8396912-7.9622803-9.4755554-9.5673523l-0.1181641-0.0613098
				c-0.7604675-0.3928223-1.6970825-0.182724-2.2135315,0.5241089c-0.5623779,0.7549896-0.4300232,1.8327637,0.3216858,2.4159393
				c1.4541626,1.1543121,2.4498596,2.1084442,2.4498596,2.1084442c-5.7772217-1.5471497-11.4975586-0.8096161-13.8018494-0.3850708
				c-0.4858093,0.0809631-0.9059753,0.3939362-1.1314087,0.8227844c-0.0645447,0.1390076-0.1028442,0.2735901-0.1389465,0.4212799
				c-0.2023926,1.0121155,0.5821228,1.9542084,1.6128235,1.9038696c3.4313049-0.1400604,6.7915039,0.3862152,7.1941528,0.4540558
				c-3.9356995-0.3359222-8.8397827,1.7364502-11.1320496,2.8404846c-0.3687439,0.1761627-0.646698,0.4519043-0.827179,0.7856293
				c-0.1816101,0.3676453-0.2319946,0.7943726-0.1390076,1.2309418c0.2484131,1.0449524,1.3600769,1.6423492,2.3677979,1.2517242
				c3.515564-1.3753815,7.2215576-1.3655548,7.5268555-1.3556976c-2.9203796,0.4125366-6.0080872,2.209137-7.7719116,3.366806
				c-0.8436279,0.5656891-1.109436,1.6828156-0.6291504,2.5811462l0.0175171,0.0240936
				c0.5153503,0.9464417,1.6905212,1.276886,2.6599426,0.7778931c4.4138489-2.2605743,8.9119873-2.6796722,9.1976318-2.707016
				c-2.3087463,0.9650726-4.8121948,2.8667603-6.2564697,4.0791016c-0.1794739,0.1378937-0.3162537,0.3293762-0.4081726,0.5065918
				c-0.289917,0.5678711-0.2472534,1.2692413,0.1772766,1.7922516
				C274.9900208,256.2028503,275.8883362,256.3703003,276.6039124,255.9676361z"/>
		</g>
		<g>
			<path class="st2" d="M370.9401855,174.7232819c-13.98526-1.2796631-20.6791992,27.8643036-31.6870117,54.8807983
				l-44.512085,9.356842c-2.3779907,3.8833923-2.2834167,7.8113251,1.0863647,11.7982635
				c0,0,49.3069153,1.5841675,57.1484985-1.2673187s23.401001-44.8340454,24.8886414-51.6447449
				C379.3522034,191.0364227,379.6370544,175.5190582,370.9401855,174.7232819z"/>
			<path class="st4" d="M366.6995239,227.6711121c5.5275269-12.4180908,10.3677063-26.1734467,11.1650696-29.8239899
				c1.0899658-4.9901733,1.5342407-14.65448-1.7269897-19.7775421"/>
		</g>
	</g>
</g>
<g id="WOMAN_1_RIGHT_ARM">
	<g>
		<path class="st2" d="M248.9145508,165.0728607l28.1942749,47.8664398l-21.3263397,14.0880432l-25.3380127-34.016571
			c-4.6351013-6.2226715-7.4009857-13.6875763-7.6487122-21.4428558c-0.0146637-0.4590607,0.1439056-1.0770721,0.404129-1.7678833
			c2.5589142-6.7926483,9.9326477-10.6269684,16.963913-8.8243103
			C242.7398224,161.6361542,245.6628723,162.9022675,248.9145508,165.0728607z"/>
		<path class="st10" d="M241.0668793,207.2714844l-10.622406-14.2607117
			c-4.6351013-6.2226715-7.4009857-13.6875763-7.6487122-21.4428558c-0.0146637-0.4590607,0.1439056-1.0770721,0.404129-1.7678833
			c2.3811798-6.3208313,8.9315491-10.0800476,15.4955292-9.1192474"/>
		<path class="st1" d="M274.803009,203.9717712l6.3944397,8.1837616c0,0,1.0359802,11.9483643-8.2308044,18.5705414
			c-9.2667847,6.6221619-17.204895,1.8630676-17.204895,1.8630676l-9.3745422-10.6734314
			C246.387207,221.9157104,254.6836548,201.651001,274.803009,203.9717712z"/>
		<g>
			<path class="st0" d="M329.4680176,177.3869019c-9.6370239,4.4116669-10.7217407,9.5596313-12.2163696,10.6780548
				c-1.5725098,1.1678314-6.5099792,1.6389923-6.5099792,1.6389923
				c-20.5123901,34.0543976-38.4732056,42.0363464-38.4732056,42.0363464s-7.0040283,2.8023987-11.8536682-3.0609894
				c-2.6175232-3.1647186-3.8111572-5.6500854-3.8111572-5.6500854s-0.1947327-10.7171478,10.2330627-12.6912537
				c11.6434326-6.6283417,27.1058655-15.8087921,38.9848938-25.828186
				c-2.815979-3.5979919-2.6637878-10.8301697-2.4240112-14.109436l0.0199585-0.1385803
				c0.1296997-0.9006958,0.8940735-1.5787048,1.8147888-1.5876007c1.0026855-0.0172577,1.8503723,0.7615051,1.8973389,1.7684784
				c0.0996704,1.97435,0.3059387,3.418457,0.3059387,3.418457c2.2296448-5.9428711,6.4022827-10.4341278,8.1875-12.1673737
				c0.3766174-0.3701477,0.9057007-0.536438,1.4105225-0.4637604c0.1583252,0.0227966,0.3025513,0.0738983,0.4552002,0.1362762
				c0.996582,0.4465637,1.3302917,1.7070007,0.6505432,2.5689392c-2.3919678,3.0704651-4.072998,6.5362549-4.072998,6.5362549
				c2.1182251-3.6251373,6.9721985-6.603775,9.3523865-7.9078979c0.3735352-0.2089081,0.7879944-0.2805786,1.1838989-0.2235718
				c0.4355164,0.0626984,0.8383789,0.2823181,1.1519165,0.6306152c0.7542419,0.8663177,0.5830994,2.1954651-0.3764648,2.8251495
				c-3.3569336,2.1940308-5.6373291,5.4017944-5.8171997,5.668869c2.1549377-2.2660217,5.6129456-3.8292236,7.7097168-4.6386566
				c1.0045166-0.3807526,2.1410217,0.0759125,2.6165466,1.0536194l0.0070496,0.0212402
				c0.4981079,1.0315247,0.0597534,2.2514648-0.9661255,2.7807159c-4.6836853,2.4273224-7.8230286,6.0569611-8.0169983,6.2816162
				c2.2515259-1.3933716,5.4459229-2.3883057,7.3867493-2.8868256c0.2320557-0.0675964,0.4752808-0.0729675,0.6930237-0.041626
				c0.663208,0.0954895,1.2410583,0.5726624,1.4354858,1.2573853
				C330.6686707,176.1351929,330.2589722,177.0157776,329.4680176,177.3869019z"/>
		</g>
	</g>
</g>
<g id="MAN_RIGHT_ARM">
	<g>
		<path class="st0" d="M183.7581329,164.4819641c0,0-6.4158478-1.8712921-7.3960419-1.6039581
			c-0.9801941,0.2673187-5.9702911,6.6831665-6.3267365,9.2673187c-0.3564301,2.5841675,4.633667,7.7524872,4.633667,7.7524872
			l1.8712921-3.0297089L183.7581329,164.4819641z"/>
		<path class="st13" d="M191.1541748,165.3730469l-5.9703064-2.0494995c0,0-6.5049438,1.7821808-7.9306793,3.742569
			c-1.4257507,1.9604034-0.7128754,9.8019867-0.7128754,9.8019867l6.2376251,3.0297089L191.1541748,165.3730469z"/>
		<path class="st5" d="M266.480896,162.0463257l-52.1584015,9.2673187l-23.7623749-6.8910828
			c0,0-7.8415985,1.9009857-9.267334,4.2772217s-0.9505005,11.6435699-0.9505005,11.6435699
			s25.901001,13.0693054,33.5049591,14.0197906c7.6039581,0.9505005,56.6732635-3.6831665,56.6732635-3.6831665
			S279.789978,167.8691711,266.480896,162.0463257z"/>
		<path class="st6" d="M270.5205078,190.6799774c0,0,8.522583-20.9728088-2.5096436-27.8316498"/>
		<circle class="st1" cx="185.139328" cy="178.2689972" r="1.8267326"/>
	</g>
</g>
<g id="MAN_LEFT_ARM">
	<g>
		<path class="st0" d="M423.1046753,164.4819641c0,0,6.4158325-1.8712921,7.3960266-1.6039581
			c0.9801941,0.2673187,5.9703064,6.6831665,6.3267517,9.2673187c0.3564148,2.5841675-4.633667,7.7524872-4.633667,7.7524872
			l-1.8713074-3.0297089L423.1046753,164.4819641z"/>
		<path class="st13" d="M415.7086182,165.3730469l5.9703064-2.0494995c0,0,6.5049438,1.7821808,7.9306946,3.742569
			c1.4257507,1.9604034,0.7128601,9.8019867,0.7128601,9.8019867l-6.2376099,3.0297089L415.7086182,165.3730469z"/>
		<path class="st12" d="M415.7086182,165.3730469l5.9703064-2.0494995c0,0,6.5049438,1.7821808,7.9306946,3.742569
			c1.4257507,1.9604034,0.7128601,9.8019867,0.7128601,9.8019867l-6.2376099,3.0297089L415.7086182,165.3730469z"/>
		<path class="st5" d="M345.2564392,161.5051575l47.2838745,9.8084869l23.7623596-6.8910828
			c0,0,7.8415833,1.9009857,9.267334,4.2772217s0.9505005,11.6435699,0.9505005,11.6435699
			s-25.901001,13.0693054-33.5049438,14.0197906c-7.6039734,0.9505005-52.4214783-3.2884216-52.4214783-3.2884216
			S331.9473572,167.3280029,345.2564392,161.5051575z"/>
		<path class="st6" d="M340.5940857,191.0747223c0,0-8.1621399-22.415863,3.5799255-29.0305176"/>
		<circle class="st1" cx="421.7234802" cy="178.2689972" r="1.8267326"/>
	</g>
</g>
<g id="PLANTS">
	<g>
		<g>
			<path class="st5" d="M222.9034119,503.665802c0,0-2.611618-31.6269836-31.3394318-38.3425903
				c-28.7278137-6.7155762,0,29.7185364,0,29.7185364s-23.8776703-18.8989563-38.4281158-13.3026123
				c-14.5504608,5.5963135-2.6116333,17.2601013,20.8929443,22.2477722L222.9034119,503.665802z"/>
			<path class="st5" d="M165.2305603,465.6963196c10.6066437,8.5242615,7.0886688,13.6443787-1.865448,6.0760193
				C154.4109802,464.203949,159.1401367,460.8016052,165.2305603,465.6963196z"/>
		</g>
		<g>
			<path class="st2" d="M516.847168,470.5769348c-1.1800537,0.9799805-2.4000244,1.9500122-3.6500244,2.9299927
				c-2.2200012,1.7299805-4.519989,3.4500122-6.8599548,5.1500244
				c-13.6500244,9.9599609-28.3500366,19.1799927-33.6199951,25.3299561c0,0-4.8800049-29.6199951,15.3599854-59.5099487
				c2.4099731-3.5599976,4.9099731-6.7000122,7.4699707-9.4500122c6.3800049-6.8800049,13.0800171-11.3900146,19.519989-14.2000122
				c12.6400146-5.5300293,24.2200317-4.5,30.1799927-2C548.097168,431.8969421,532.4871216,457.6869202,516.847168,470.5769348z"/>
			<path class="st14" d="M513.1971436,473.5069275c-2.2200012,1.7299805-4.519989,3.4500122-6.8599548,5.1500244
				c2.0299683-8.4100342,2.4099731-19.7399902-6-28.3500366c-4.6700439-4.7699585-5.6600342-10.1399536-4.7900391-15.2799683
				c6.3800049-6.8800049,13.0800171-11.3900146,19.519989-14.2000122
				c-2.4199829,5.9099731-3.3899841,13.710022,1.9000244,21.7600098
				C522.597168,451.1669617,518.5071411,463.5169373,513.1971436,473.5069275z"/>
			<path class="st11" d="M538.1185303,422.625946c0,0-41.584137,20.6732788-62.5841064,72.6401367"/>
		</g>
		<g>
			<path class="st5" d="M67.0696335,479.9465332c0.8491135,0.7051392,1.7269516,1.4031372,2.6264038,2.1083069
				c1.597435,1.244812,3.2524109,2.4824829,4.9361496,3.705719c9.8219681,7.1667786,20.3994598,13.8011169,24.1914978,18.2263489
				c0,0,3.5114365-21.3132629-11.0523834-42.8208008c-1.7341156-2.561615-3.5330048-4.8210449-5.3750687-6.7998047
				c-4.5907745-4.9505615-9.4118195-8.1957703-14.0457687-10.2177124
				c-9.0952072-3.979187-17.4276886-3.2380066-21.7162209-1.4391174
				C44.5834808,452.1140747,55.8157959,470.6714478,67.0696335,479.9465332z"/>
			<path class="st15" d="M69.6960373,482.0548401c1.597435,1.244812,3.2524109,2.4824829,4.9361496,3.705719
				c-1.4606781-6.0514832-1.7341156-14.2040405,4.317337-20.3994446c3.3603668-3.4322815,4.0727158-7.2962952,3.4467087-10.994812
				c-4.5907745-4.9505615-9.4118195-8.1957703-14.0457687-10.2177124c1.7413177,4.2525635,2.4393082,9.8651428-1.3671722,15.6575623
				C62.9321823,465.97995,65.8751907,474.8664551,69.6960373,482.0548401z"/>
			<path class="st12" d="M51.7636795,445.4430847c0,0,29.9221725,14.8755798,45.0328522,52.2686768"/>
		</g>
		<g>
			<path class="st5" d="M502.958313,503.9790649c0.1200562,0,0.25-0.0099487,0.3800049-0.0199585
				C503.168335,503.9691162,503.0483398,503.9790649,502.958313,503.9790649z"/>
			<path class="st5" d="M507.3383179,503.6390991c-1.3599854,0.1499634-2.6999512,0.2600098-4,0.3200073
				C504.0383301,503.9091187,505.4483643,503.809082,507.3383179,503.6390991z"/>
		</g>
		<path class="st5" d="M554.4983521,476.6190796c-2.0100098,3.7200317-4.8300171,7.5599976-8.2999878,10.9400024
			c0.8499756,0.8900146,1.4599609,2.0100098,1.75,3.3900146c1.7299805,8.2399902-28.8500366,11.6799927-40.6100464,12.6900024
			c-1.8899536,0.1699829-3.2999878,0.2700195-4,0.3200073c-0.1699829,0.0100098-0.289978,0.0199585-0.3800049,0.0199585
			c-0.0899658,0.0100098-0.1299438,0.0100098-0.1299438,0.0100098s0-0.0100098,0.0099487-0.0199585
			c0.1600342-0.6600342,5.5300293-21.9000244,14.8099976-25.3099976c2.6500244-0.9700317,4.4900513-0.9000244,5.7600098-0.2900391
			c0.5800171-0.5499878,1.1700439-1.0800171,1.7600098-1.6099854c6.1099854-5.4199829,14.8200073-8.5800171,22.0900269-9.9700317
			C552.8283691,465.7290649,557.208313,471.6390991,554.4983521,476.6190796z"/>
		<path class="st2" d="M45.2206841,485.9527588c1.3245583,2.4514465,3.182888,4.9819031,5.469532,7.209259
			c-0.5601158,0.5864868-0.9620857,1.3245544-1.1532173,2.2339478c-1.1400223,5.4299927,19.0116158,7.6968994,26.7612343,8.3624573
			c1.2454453,0.11203,2.1746292,0.177948,2.6359253,0.2108765c0.1120148,0.0066223,0.1910934,0.0131531,0.2504196,0.0131531
			c0.0592804,0.0066223,0.0856247,0.0066223,0.0856247,0.0066223s0-0.0066223-0.0065536-0.0131531
			c-0.1054611-0.434967-3.6441803-14.4317017-9.7594986-16.6788025c-1.746315-0.6392517-2.9588623-0.5931091-3.7957382-0.1911316
			c-0.3822174-0.3624268-0.7710342-0.711731-1.1598129-1.0609436c-4.0263634-3.5716858-9.766098-5.6540833-14.5569-6.5700684
			C46.3211708,478.7764587,43.4348717,482.671051,45.2206841,485.9527588z"/>
	</g>
</g>
<g id="ORNAMENT_9">
	<g>
		<line class="st16" x1="102.4264603" y1="330.3326111" x2="102.4264603" y2="336.1124878"/>
		<line class="st16" x1="102.4264603" y1="342.2820129" x2="102.4264603" y2="348.0618896"/>
		<line class="st16" x1="111.2911072" y1="339.1972351" x2="105.5112228" y2="339.1972351"/>
		<line class="st16" x1="99.3416901" y1="339.1972351" x2="93.5618134" y2="339.1972351"/>
	</g>
</g>
<g id="ORNAMENT_8">
	<g>
		<line class="st16" x1="503.6459045" y1="306.662384" x2="503.6459045" y2="312.4422913"/>
		<line class="st16" x1="503.6459045" y1="318.6118164" x2="503.6459045" y2="324.3916931"/>
		<line class="st16" x1="512.5105591" y1="315.5270386" x2="506.7306519" y2="315.5270386"/>
		<line class="st16" x1="500.5611267" y1="315.5270386" x2="494.78125" y2="315.5270386"/>
	</g>
</g>
<g id="ORNAMENT_7">
	<g>
		<line class="st16" x1="195.5140839" y1="407.4522095" x2="195.5140839" y2="410.6562805"/>
		<line class="st16" x1="195.5140839" y1="414.0763855" x2="195.5140839" y2="417.2804871"/>
		<line class="st16" x1="200.4282227" y1="412.366333" x2="197.2241364" y2="412.366333"/>
		<line class="st16" x1="193.8040314" y1="412.366333" x2="190.5999451" y2="412.366333"/>
	</g>
</g>
<g id="ORNAMENT_6">
	<circle class="st16" cx="139.2897186" cy="133.4531097" r="4.5803947"/>
</g>
<g id="ORNAMENT_5">
	<circle class="st16" cx="306.1640625" cy="448.7289734" r="4.5803947"/>
</g>
<g id="ORNAMENT_4">
	<circle class="st17" cx="78.9033966" cy="409.9893799" r="5.2019591"/>
</g>
<g id="ORNAMENT_3">
	<circle class="st17" cx="459.3893738" cy="124.5611725" r="7.8395782"/>
</g>
<g id="ORNAMENT_2">
	<circle class="st17" cx="82.6014404" cy="233.1208954" r="7.8395782"/>
</g>
<g id="ORNAMENT_1">
	<circle class="st17" cx="497.6880798" cy="230.7370605" r="5.5169287"/>
</g>
<g id="GROUND">
	<g>
		<g>
			<line class="st16" x1="422.9214478" y1="503.9890747" x2="540.6505127" y2="503.9890747"/>
			<line class="st16" x1="59.3494797" y1="503.9890747" x2="397.0743408" y2="503.9890747"/>
		</g>
		<g>
			<line class="st16" x1="166.3658447" y1="522.4852905" x2="112.5467682" y2="522.4852905"/>
			<line class="st16" x1="492.8988037" y1="522.4852295" x2="183.8897247" y2="522.4852295"/>
		</g>
	</g>
</g>
</svg>
