<svg id="VASE" xmlns="http://www.w3.org/2000/svg" viewBox="0 0 500 500"><defs><style>.cls-1{fill:#404b7c;}.cls-2{fill:#9ab3da;}.cls-3{fill:#f68d88;}.cls-4{fill:#f9d4d4;}.cls-5{fill:#fff;}.cls-6{fill:#ecbdbb;}</style></defs><title>Idea</title><path class="cls-1" d="M141.27,429.41S140.2,377,184.89,351.26C184.89,351.26,185.51,400.78,141.27,429.41Z"/><path class="cls-2" d="M144.62,424.45a0.5,0.5,0,0,1-.44-0.74l36.19-66.08a0.5,0.5,0,0,1,.88.48l-36.19,66.08A0.5,0.5,0,0,1,144.62,424.45Z"/><path class="cls-2" d="M136.79,420.75s-11-51.25,28-85C164.79,335.75,174.79,384.25,136.79,420.75Z"/><path class="cls-1" d="M139,415.25l-0.15,0a0.5,0.5,0,0,1-.32-0.63l23-71.75a0.5,0.5,0,1,1,1,.3l-23,71.75A0.5,0.5,0,0,1,139,415.25Z"/><path class="cls-1" d="M137.61,432.15s-4.58-43.38-44.17-60C93.44,372.19,98.1,413.14,137.61,432.15Z"/><path class="cls-2" d="M134.28,428.49a0.5,0.5,0,0,1-.41-0.21L97.09,377.51a0.5,0.5,0,1,1,.81-0.59l36.78,50.78A0.5,0.5,0,0,1,134.28,428.49Z"/><path class="cls-1" d="M135.31,423.11s35.46-53.6,6-109.55C141.32,313.56,108.23,364.46,135.31,423.11Z"/><path class="cls-2" d="M135.42,415.76h0a0.5,0.5,0,0,1-.47-0.53L140.73,323a0.5,0.5,0,1,1,1,.06l-5.81,92.19A0.5,0.5,0,0,1,135.42,415.76Z"/><path class="cls-2" d="M133.79,421.25s11-51.25-28-85C105.79,336.25,95.79,384.75,133.79,421.25Z"/><path class="cls-1" d="M131.54,415.75a0.5,0.5,0,0,1-.48-0.35l-23-71.75a0.5,0.5,0,1,1,1-.3l23,71.75a0.5,0.5,0,0,1-.32.63Z"/><path class="cls-3" d="M169.5,417.67l-6.25,52.83h-55.5l-6.25-52.83A185.07,185.07,0,0,1,169.5,417.67Z"/><path class="cls-4" d="M152.67,443.17c-10.08,1.08-12.25,2.67-14.75,13.83-1.28,5.7-6.37,10.33-11.08,13.5h10.89a21.9,21.9,0,0,0,7.36-13.83c1.42-10.33,8.67-9.5,16.5-8.58a23.1,23.1,0,0,0,4.3.13l1.11-9.38C164.16,441.52,159.43,442.44,152.67,443.17Z"/><path class="cls-4" d="M129.58,444.67c-0.33-11.25.75-15.75,15.67-16.08,9.67-.22,13.62-7.36,15.22-12.36q-4.21-.57-8.42-1c-1.1,4.06-4.75,9.22-16.29,8.81-18.83-.67-7.58,16.75-16.92,22.33-5.54,3.31-10.79.84-14.13-1.71l1,8.66C115.67,459.95,129.89,455,129.58,444.67Z"/><path class="cls-4" d="M114.08,431.33c-3.88,1-5.92,9.08.17,9.08S120.58,429.67,114.08,431.33Z"/><polygon class="cls-1" points="344.05 140.29 338.58 152.67 328.67 152.67 323.93 141.92 333.63 140.79 344.05 140.29"/><path class="cls-3" d="M359.29,86.25A25.6,25.6,0,0,1,351.75,105a17.71,17.71,0,0,0-4.93,10.37l-1.93,15.32H322.3l-1.93-15.33a18.1,18.1,0,0,0-5-10.49A25.7,25.7,0,1,1,359.29,86.25Z"/><path class="cls-5" d="M333.6,103.85a3.35,3.35,0,1,1,3.35-3.35A3.35,3.35,0,0,1,333.6,103.85Zm0-5.83a2.49,2.49,0,1,0,2.49,2.49A2.49,2.49,0,0,0,333.6,98Z"/><path class="cls-5" d="M333.6,130.21a0.43,0.43,0,0,1-.43-0.43V103.42a0.43,0.43,0,0,1,.86,0v26.37A0.43,0.43,0,0,1,333.6,130.21Z"/><path class="cls-5" d="M333.6,95.6a0.43,0.43,0,0,1-.43-0.43V90.83a0.43,0.43,0,0,1,.86,0v4.33A0.43,0.43,0,0,1,333.6,95.6Z"/><path class="cls-5" d="M337.37,97.16a0.43,0.43,0,0,1-.3-0.73l3.06-3.06a0.43,0.43,0,1,1,.61.61L337.67,97A0.43,0.43,0,0,1,337.37,97.16Z"/><path class="cls-5" d="M343.27,100.93h-4.33a0.43,0.43,0,1,1,0-.86h4.33A0.43,0.43,0,0,1,343.27,100.93Z"/><path class="cls-5" d="M340.44,107.76a0.43,0.43,0,0,1-.3-0.13l-3.06-3.06a0.43,0.43,0,0,1,.61-0.61l3.06,3.06A0.43,0.43,0,0,1,340.44,107.76Z"/><path class="cls-5" d="M326.76,107.76a0.43,0.43,0,0,1-.3-0.73l3.06-3.06a0.43,0.43,0,1,1,.61.61l-3.06,3.06A0.43,0.43,0,0,1,326.76,107.76Z"/><path class="cls-5" d="M328.27,100.93h-4.33a0.43,0.43,0,1,1,0-.86h4.33A0.43,0.43,0,0,1,328.27,100.93Z"/><path class="cls-5" d="M329.83,97.16a0.43,0.43,0,0,1-.3-0.13L326.46,94a0.43,0.43,0,1,1,.61-0.61l3.06,3.06A0.43,0.43,0,0,1,329.83,97.16Z"/><path class="cls-2" d="M346.16,136.36A2.26,2.26,0,0,1,345,137a1.86,1.86,0,0,1,1.78,1.88,2.19,2.19,0,0,1-.6,1.48,2.26,2.26,0,0,1-1.47.69l-22.12,1.57a1.88,1.88,0,0,1-2.07-1.87,2.13,2.13,0,0,1,.61-1.48,2.23,2.23,0,0,1,1.17-.65,1.87,1.87,0,0,1-1.78-1.88,2.21,2.21,0,0,1,1.81-2.13,1.87,1.87,0,0,1-1.81-1.88,2.12,2.12,0,0,1,.61-1.47,2.2,2.2,0,0,1,1.46-.7L344.69,129a1.88,1.88,0,0,1,2.07,1.88,2.14,2.14,0,0,1-.6,1.47A2.17,2.17,0,0,1,345,133a1.86,1.86,0,0,1,1.81,1.88A2.14,2.14,0,0,1,346.16,136.36Z"/><path class="cls-1" d="M323.11,135a0.5,0.5,0,0,1,0-1L344,132.5a0.51,0.51,0,0,1,.54.46,0.5,0.5,0,0,1-.46.54L323.15,135h0Z"/><path class="cls-1" d="M323.11,139a0.5,0.5,0,0,1,0-1l20.63-1.54a0.5,0.5,0,1,1,.07,1L323.15,139h0Z"/><ellipse class="cls-4" cx="345.82" cy="73.64" rx="4.6" ry="7.66" transform="translate(46.24 261.43) rotate(-44.1)"/><polygon class="cls-4" points="337.33 18.83 335.46 53.34 331.7 53.34 329.83 18.83 337.33 18.83"/><polygon class="cls-4" points="288.18 36.1 311.25 61.82 308.6 64.48 282.88 41.41 288.18 36.1"/><polygon class="cls-4" points="265.64 83.07 300.14 84.94 300.14 88.7 265.64 90.57 265.64 83.07"/><polygon class="cls-4" points="282.9 132.22 308.63 109.14 311.28 111.8 288.21 137.52 282.9 132.22"/><polygon class="cls-4" points="379.02 137.49 355.94 111.77 358.6 109.11 384.32 132.19 379.02 137.49"/><polygon class="cls-4" points="401.56 90.53 367.06 88.66 367.06 84.9 401.56 83.03 401.56 90.53"/><polygon class="cls-4" points="384.3 41.38 358.57 64.45 355.92 61.79 378.99 36.07 384.3 41.38"/><polygon class="cls-6" points="285.67 408.25 285.3 417.9 284.79 431.25 275.79 431.25 274.87 421.54 273.54 407.5 285.67 408.25"/><polygon class="cls-1" points="285.67 408.25 285.3 417.9 274.87 421.54 273.54 407.5 285.67 408.25"/><path class="cls-1" d="M268,468.17l44.13,0.13s1.84-17.54-12.54-19.79a7,7,0,0,1-1.27-.33c-7.78-2.87-11.4-20.17-11.4-20.17s-9.25-2.25-14.75.88c0,0-3.73,18.1-4.33,33.62C267.75,464.58,267.94,466.24,268,468.17Z"/><path class="cls-2" d="M292.85,451.94a0.5,0.5,0,0,1-.19,0,17.3,17.3,0,0,1-6.85-6.18c-4-5.82-6.71-16.58-6.82-17a0.5,0.5,0,1,1,1-.24c0,0.11,2.77,11,6.68,16.71A16.66,16.66,0,0,0,293,451,0.5,0.5,0,0,1,292.85,451.94Z"/><path class="cls-2" d="M267.55,468.62h44.87s1.75-18.12-12.63-20.37a7,7,0,0,1-1.27-.33c-4.18,1.53-9.71,5.32-11.77,14.66H267.59C267.51,464.66,267.49,466.69,267.55,468.62Z"/><ellipse class="cls-2" cx="275.2" cy="446.63" rx="3.03" ry="5.88"/><path class="cls-3" d="M271.33,404.17S259.67,316.67,256,293.33c0,0-5-73.33,14-74.67s26.67,19.67,28,34-7,133.33-10.67,152Z"/><path class="cls-6" d="M295.63,250.93a0.43,0.43,0,0,1-.2,0c-7.84-4-9.89-14.36-10-14.8a0.43,0.43,0,0,1,.84-0.16c0,0.1,2.06,10.34,9.53,14.2A0.43,0.43,0,0,1,295.63,250.93Z"/><ellipse class="cls-4" cx="283.77" cy="330.75" rx="13" ry="8.44" transform="translate(-47.65 613.74) rotate(-89.87)"/><path class="cls-6" d="M276,403.43a0.43,0.43,0,0,1-.43-0.39c-4.2-51.15-12.42-122.52-12.5-123.24a0.43,0.43,0,1,1,.85-0.1c0.08,0.71,8.3,72.1,12.5,123.26a0.43,0.43,0,0,1-.39.46h0Z"/><path class="cls-4" d="M266.33,403.17s14.67-4.67,25.83.5l-1.67,13.17-23.33.17Z"/><path class="cls-6" d="M264.38,267.55a0.43,0.43,0,0,1-.17-0.83c3.1-1.29,6.56-3.08,6.75-3.73,0.27-.94.88-17.64,1.23-28.64a0.41,0.41,0,0,1,.44-0.42,0.43,0.43,0,0,1,.42.44c-0.09,2.82-.89,27.59-1.27,28.86s-5.65,3.61-7.25,4.27A0.42,0.42,0,0,1,264.38,267.55Z"/><path class="cls-3" d="M234.75,232.63s-5,5.38-5.12,6.5-22,133.88-25,170.54h14.67s46.33-132,47.33-137.67,2-38.67,1.67-48S244.5,215.92,234.75,232.63Z"/><path class="cls-6" d="M266.67,272.43h-0.08a0.43,0.43,0,0,1-.35-0.5c0.76-4.29,1.57-25.33,1.71-39.54a0.4,0.4,0,0,1,.43-0.43,0.43,0.43,0,0,1,.42.43c-0.12,12.74-.9,35-1.72,39.68A0.43,0.43,0,0,1,266.67,272.43Z"/><path class="cls-6" d="M230.25,253.43a0.43,0.43,0,0,1,0-.86c0.39,0,9.68-.77,11.6-12.89a0.42,0.42,0,0,1,.49-0.36,0.43,0.43,0,0,1,.36.49c-2,12.82-12.29,13.6-12.4,13.61h0Z"/><path class="cls-6" d="M219,400.93l-0.14,0a0.43,0.43,0,0,1-.27-0.54l41.75-123a0.43,0.43,0,1,1,.81.28l-41.75,123A0.43,0.43,0,0,1,219,400.93Z"/><ellipse class="cls-4" cx="225.94" cy="330.75" rx="13" ry="8.44" transform="translate(-137.34 499.5) rotate(-80.58)"/><polygon class="cls-6" points="217.75 407.5 214.63 421.31 212.38 431.25 203.38 431.25 204.86 416.02 205.62 408.25 217.75 407.5"/><polygon class="cls-1" points="205.62 408.25 217.75 407.5 214.63 421.31 204.86 416.02 205.62 408.25"/><path class="cls-1" d="M220.06,468l-43.69.25s-2.26-17.25,12.13-19.5a9.15,9.15,0,0,0,1.44-.44c7.78-2.87,11.31-20.31,11.31-20.31s9.25-2.25,14.75.88c0,0,3.65,18,4.25,33.56C220.33,464.52,220.12,466.07,220.06,468Z"/><path class="cls-2" d="M195.31,451.94a0.5,0.5,0,0,1-.19-1,16.66,16.66,0,0,0,6.4-5.82c3.9-5.67,6.65-16.6,6.68-16.71a0.5,0.5,0,0,1,1,.24c-0.11.46-2.82,11.22-6.82,17a17.29,17.29,0,0,1-6.85,6.18A0.5,0.5,0,0,1,195.31,451.94Z"/><path class="cls-2" d="M220.62,468.62H175.75S174,450.5,188.38,448.25a7,7,0,0,0,1.27-.33c4.18,1.53,9.71,5.32,11.77,14.66h19.16C220.66,464.66,220.68,466.69,220.62,468.62Z"/><ellipse class="cls-2" cx="212.97" cy="446.63" rx="3.03" ry="5.88"/><path class="cls-4" d="M200.67,401.83L199,416.17l22.17,1.5,3.5-13.33S212.17,398.83,200.67,401.83Z"/><path class="cls-2" d="M294.75,146.88s20.67,24.52,29.46,50.58a9.38,9.38,0,0,1-.34,6.84c-3,6.61-8.6,20.37-12,22.37s-16.5-2.17-16.25-8.17,4.65-20.75,4.65-20.75-11.75-13.5-20.5-25.75S280.5,136.75,294.75,146.88Z"/><path class="cls-1" d="M315.5,199a0.5,0.5,0,0,1-.25-0.06c-8.05-4.54-13.41-.9-13.47-0.86a0.5,0.5,0,1,1-.57-0.82c0.24-.17,5.94-4,14.53.81A0.5,0.5,0,0,1,315.5,199Z"/><path class="cls-1" d="M296.94,218.75l-2.35,6.75a9.9,9.9,0,0,0,5,5.5,12.09,12.09,0,0,0,7.4,1.25l4.52-8S306.52,215.42,296.94,218.75Z"/><path class="cls-6" d="M304.85,230.58c-2.6,5.11-9,15.92-11,18.82A19.34,19.34,0,0,1,288,242c3.4-6.21,7.62-16.1,7.62-16.1C302.43,224.08,304.85,230.58,304.85,230.58Z"/><polygon class="cls-6" points="260.25 131.88 251.19 131.62 252.99 113.32 253.06 112.56 260.12 113.62 260.17 120.05 260.25 131.88"/><path class="cls-1" d="M260.17,120c-4.58-1.41-6.44-4.36-7.18-6.73l0.07-.76,7.06,1.06Z"/><path class="cls-1" d="M232,221.88c0.38,0,.13,12.25.5,12.25s8.38,3.13,16.88,2.75,35-1.12,42.25-6.12l0.38-12.5C273,224.54,253,225.3,232,221.88Z"/><path class="cls-4" d="M262.23,223.89s0.25,12.39.24,12.89,14.58-.44,15.15-0.67,0.21-13.25.21-13.25S272.25,223.56,262.23,223.89Z"/><path class="cls-4" d="M239.63,222.25s-0.19,14.38,0,14.69,3.63,0.63,3.63.63-0.06-15.19-.25-15.25S239.94,221.81,239.63,222.25Z"/><path class="cls-4" d="M249.88,222.94s-0.19,14.38,0,14.69,3.38,0,3.38,0,0.19-14.56,0-14.62S250.19,222.5,249.88,222.94Z"/><path class="cls-4" d="M287.15,219.24s0.14,14.35,0,14.69-2.55.44-2.55,0.44-0.14-14.54,0-14.63S286.91,218.85,287.15,219.24Z"/><path class="cls-1" d="M243.94,125.25a29.3,29.3,0,0,1,25.94,1.88l-0.75,8.13-23.56,1.56Z"/><path class="cls-2" d="M296,217l-3.62,2.62s-25.13,8.88-60.5,4.13l-7.63-7a176.2,176.2,0,0,0-1.11-22.91,64.69,64.69,0,0,0-1.89-9.72c0-.07,0-0.15-0.07-0.24-1.34-4.77-2-12.13-2.4-19.32-0.28-5.75-.35-11.38-0.35-15.49,0-3.83.07-6.32,0.07-6.32,0.38,0,19.75-10.87,37.88-11.13s38.37,15.26,38.37,15.26S299.25,186,296,217Z"/><path class="cls-1" d="M297.18,191.62a0.5,0.5,0,0,1-.5-0.5c0-18.12-1.48-34.85-2.11-41.19a0.5,0.5,0,0,1,.45-0.55,0.51,0.51,0,0,1,.55.45c0.63,6.36,2.1,23.12,2.12,41.29a0.5,0.5,0,0,1-.5.5h0Z"/><path class="cls-1" d="M228.08,167.83c-0.51,7.2-1.79,19.32-4.94,26a64.69,64.69,0,0,0-1.89-9.72c0-.07,0-0.15-0.07-0.24-1.34-4.77-2-12.13-2.4-19.32-0.28-5.75-.35-11.38-0.35-15.49a28.18,28.18,0,0,1,6.28,6.62A18.79,18.79,0,0,1,228.08,167.83Z"/><path class="cls-1" d="M273.75,221.75h0a0.5,0.5,0,0,1-.48-0.52c2.22-48.57-15.28-86.76-15.45-87.14a0.5,0.5,0,1,1,.91-0.42c0.18,0.38,17.78,38.8,15.55,87.61A0.5,0.5,0,0,1,273.75,221.75Z"/><path class="cls-1" d="M277.5,221.75h0a0.5,0.5,0,0,1-.48-0.52c2.22-48.55-14.91-86.27-15.08-86.64a0.5,0.5,0,1,1,.91-0.42c0.17,0.38,17.4,38.3,15.17,87.11A0.5,0.5,0,0,1,277.5,221.75Z"/><path class="cls-1" d="M232,215.58h0a0.5,0.5,0,0,1-.49-0.51c0.25-11.16-3.79-37.32-3.83-37.58a0.5,0.5,0,1,1,1-.15c0,0.26,4.09,26.51,3.84,37.75A0.5,0.5,0,0,1,232,215.58Z"/><path class="cls-2" d="M218.5,142.75l-28.75,29.13L178,207s23.13-3.12,44.63-26.12a37.59,37.59,0,0,0,5.75-20.62A20.38,20.38,0,0,0,218.5,142.75Z"/><path class="cls-1" d="M222.62,181.38a0.5,0.5,0,0,1-.41-0.79,37.45,37.45,0,0,0,5.66-20.33,20,20,0,0,0-7.36-15.5,0.5,0.5,0,0,1,.63-0.77,21,21,0,0,1,7.73,16.27A38.49,38.49,0,0,1,223,181.17,0.5,0.5,0,0,1,222.62,181.38Z"/><path class="cls-2" d="M184,143.25s-6.25,5.75-8.87,10.38-7.37,33.5-6,41.13S178,207,178,207s14-5.25,16.5-18.12,3.38-28.5,3-32.25-3.25-9.37-3.25-9.37Z"/><path class="cls-1" d="M185.71,203a0.5,0.5,0,0,1-.31-0.89c4.73-3.74,7.62-8.21,8.61-13.28a188.42,188.42,0,0,0,2.64-20.4,0.49,0.49,0,0,1,.54-0.46,0.5,0.5,0,0,1,.46.54A189.35,189.35,0,0,1,195,189c-1,5.31-4,10-9,13.88A0.5,0.5,0,0,1,185.71,203Z"/><path class="cls-1" d="M184.92,137.83l-3,8.25a17.05,17.05,0,0,0,13.25,4.83l2.83-8.17S194.17,135.67,184.92,137.83Z"/><path class="cls-6" d="M204.31,120.19l-5.06,11.87-3.5,10.75c-6.44.31-9.13-3.87-9.13-3.87l4.5-7.32L191,119.75s2.5-6.94,3.06-7.13a30.22,30.22,0,0,1,5,0l1.73-14.28a1.58,1.58,0,0,1,1.77-1.38h0a1.58,1.58,0,0,1,1.39,1.54Z"/><path class="cls-1" d="M199.12,123.34a2.83,2.83,0,0,1-.45,0c-1.91-.31-2.09-3.32-2.11-3.66a0.5,0.5,0,0,1,1,0c0,0.66.32,2.56,1.27,2.72A3.22,3.22,0,0,0,202,120.2a20.24,20.24,0,0,0-.54-6.34c-0.17-.44-1.56-0.73-2.46-0.75a0.5,0.5,0,0,1-.48-0.52,0.55,0.55,0,0,1,.52-0.48c0.48,0,2.9.15,3.37,1.4a21.09,21.09,0,0,1,.58,6.91A4.23,4.23,0,0,1,199.12,123.34Z"/><path class="cls-1" d="M197.58,128.75H197.5a0.5,0.5,0,0,1-.41-0.58,13.39,13.39,0,0,0-.41-6.64,0.5,0.5,0,0,1,.93-0.37,14.21,14.21,0,0,1,.46,7.18A0.5,0.5,0,0,1,197.58,128.75Z"/><path class="cls-1" d="M197,121.85a2.84,2.84,0,0,1-1.75-.59,0.5,0.5,0,0,1,.65-0.76,1.84,1.84,0,0,0,1.39.33,0.5,0.5,0,1,1,.15,1A3,3,0,0,1,197,121.85Z"/><path class="cls-1" d="M199.83,120.59a0.5,0.5,0,0,1-.5-0.49,7.59,7.59,0,0,0-.49-3.1,22.42,22.42,0,0,0-4.31.27,0.5,0.5,0,0,1-.13-1c0.94-.12,4.06-0.49,4.84-0.19s1.06,2.35,1.09,4a0.5,0.5,0,0,1-.49.51h0Z"/><path class="cls-1" d="M201.25,118.23a0.5,0.5,0,0,1-.5-0.48c-0.05-1.23-.37-2.74-0.74-2.93a13.65,13.65,0,0,0-4.19-.1,0.5,0.5,0,1,1-.09-1c0.62-.05,3.79-0.3,4.75.21s1.23,3,1.26,3.77a0.5,0.5,0,0,1-.48.52h0Z"/><path class="cls-6" d="M200.19,119.81a3.55,3.55,0,0,0,1.94,2.69,9.39,9.39,0,0,0-3.62,5.31c-1,3.69-.12,4.38-0.12,4.38l4.92-1.69a4.08,4.08,0,0,0,2.38-2.14c1.31-2.84,3.94-8.58,4.08-9.42,0.19-1.12-1.19-1.81-2.75-1.31S200.31,119.25,200.19,119.81Z"/><path class="cls-1" d="M203.74,123.17a6.31,6.31,0,0,1-.81,0,3.39,3.39,0,0,1-3.24-3.24,0.5,0.5,0,0,1,.09-0.36c0.11-.15.82-0.91,4-1.54a0.5,0.5,0,0,1,.19,1,9.73,9.73,0,0,0-3.26,1.06,2.32,2.32,0,0,0,2.26,2.11,7.68,7.68,0,0,0,3.16-.35,0.5,0.5,0,0,1,.32.95A8.63,8.63,0,0,1,203.74,123.17Z"/><path class="cls-6" d="M246.33,106.58s4.58,6.08,7,7.83S263.67,118,266,116.5s0.92-19.83.92-19.83-6.17-8.92-15.25-5S246.33,106.58,246.33,106.58Z"/><path class="cls-1" d="M272.67,98.67c-8.84,2.33-19.84-2.84-19.84-2.84a20.6,20.6,0,0,1-1.5,6.92l1.79,4-4.62,3.08s-15.58-4.41-15.67-6.41,3-15.84,4.59-16.42A54.44,54.44,0,0,1,245,86a66.12,66.12,0,0,1,5.1-11.46c3.63,1.62,1.87,6.59,1.76,6.9l12.33-14.06c9.75,1.66,7.83,10.66,7.83,10.66a15.79,15.79,0,0,1,8.83-3.25C284.5,81.33,281.5,96.33,272.67,98.67Z"/><path class="cls-6" d="M250.77,109.09a6.14,6.14,0,0,0-6.27-3.94,4.49,4.49,0,0,0-3.84,3.1c-2.25,5.67,8.33,8.33,11.17,3.5Z"/><path class="cls-1" d="M250.25,111.56a0.5,0.5,0,0,1-.41-0.21c-2.64-3.77-6.89-1.91-7.07-1.83a0.5,0.5,0,0,1-.41-0.91c0.05,0,5.2-2.28,8.3,2.17A0.5,0.5,0,0,1,250.25,111.56Z"/><path class="cls-1" d="M245.87,112.59a0.5,0.5,0,0,1-.49-0.43,8.88,8.88,0,0,1,.3-3.74,0.5,0.5,0,0,1,.94.33,7.94,7.94,0,0,0-.26,3.26,0.5,0.5,0,0,1-.42.57h-0.07Z"/><path class="cls-1" d="M254.51,102.68s0.53-3,2.81-2.59c0,0-.14-1.34.37-1.5s1.07,2.17,1.07,2.17A11.74,11.74,0,0,0,254.51,102.68Z"/><path class="cls-1" d="M265.55,100.35s-0.76-2.63-1.93-1.44c0,0-.14-1.32-0.44-1.28-0.68.1-.23,2.41-0.23,2.41A3.76,3.76,0,0,1,265.55,100.35Z"/><path class="cls-1" d="M264.46,111.19a10,10,0,0,1-1.78,1.86c-1.11.86-2.5,1.31-3.38-.57a7.88,7.88,0,0,1-.63-2.22S260.4,111.45,264.46,111.19Z"/><path class="cls-5" d="M262.69,113c-1.11.86-2.5,1.31-3.38-.57A3.92,3.92,0,0,1,262.69,113Z"/><ellipse class="cls-1" cx="258.06" cy="104.91" rx="1.15" ry="1.42" transform="translate(-13.8 44.14) rotate(-9.52)"/><circle class="cls-5" cx="258.23" cy="104.38" r="0.3" transform="translate(-13.71 44.16) rotate(-9.52)"/><ellipse class="cls-1" cx="264.72" cy="103.8" rx="1.15" ry="1.42" transform="translate(-13.53 45.23) rotate(-9.52)"/><circle class="cls-5" cx="264.89" cy="103.26" r="0.3" transform="translate(-13.43 45.25) rotate(-9.52)"/><path class="cls-1" d="M262.24,109.15H262a0.5,0.5,0,0,1-.46-0.54,0.51,0.51,0,0,1,.54-0.46s1.15,0.07,1.31-.65a0.23,0.23,0,0,0,0-.16,1.81,1.81,0,0,0-1.13-.12,0.5,0.5,0,0,1-.57-0.41l-0.48-2.73a0.5,0.5,0,0,1,.41-0.58,0.51,0.51,0,0,1,.58.41l0.4,2.28a2.06,2.06,0,0,1,1.52.46,1.12,1.12,0,0,1,.26,1.06A2.06,2.06,0,0,1,262.24,109.15Z"/></svg>